<svg xmlns="http://www.w3.org/2000/svg" width="80" height="80" viewBox="0 0 80 80" fill="none"><path d="M2.71659 42.701L2.24805 37.5941C3.93796 37.4394 5.65676 37.2324 7.35676 36.9788L8.11471 42.0509C6.31899 42.3186 4.50275 42.5374 2.71659 42.701Z" fill="#0C0C24"></path><path d="M76.1042 11.3556L75.0652 2.27285C74.9062 0.883616 73.6068 -0.148863 72.2141 0.0176331L63.104 1.09148L63.7056 6.1843L66.5603 5.84789C55.649 18.1893 34.9762 31.5421 12.0117 36.1629L13.0254 41.1903C34.5309 36.8627 56.1225 25.5545 70.6614 8.94635L71.0035 11.9378L76.1042 11.3556Z" fill="#0C0C24"></path><path d="M14.8371 80.0001H2.56684C1.14923 80.0001 0 78.852 0 77.436V58.476C0 57.0599 1.14923 55.9119 2.56684 55.9119H14.8371C16.2547 55.9119 17.4039 57.0599 17.4039 58.476V77.436C17.4039 78.852 16.2547 80.0001 14.8371 80.0001ZM5.1335 74.8719H12.2703V61.0401H5.1335V74.8719Z" fill="#0C0C24"></path><path d="M35.7601 80H23.4897C22.0721 80 20.9229 78.852 20.9229 77.4359V49.974C20.9229 48.5579 22.0721 47.4099 23.4897 47.4099H35.7601C37.1777 47.4099 38.327 48.5579 38.327 49.974V77.4359C38.327 78.852 37.1777 80 35.7601 80ZM26.0565 74.8718H33.1933V52.5381H26.0565V74.8718Z" fill="#0C0C24"></path><path d="M56.682 80H44.4116C42.994 80 41.8447 78.852 41.8447 77.4359V41.119C41.8447 39.703 42.994 38.5549 44.4116 38.5549H56.682C58.0996 38.5549 59.2488 39.703 59.2488 41.119V77.4359C59.2486 78.852 58.0994 80 56.682 80ZM46.9782 74.8718H54.1151V43.6831H46.9782V74.8718Z" fill="#0C0C24"></path><path d="M77.4338 80H65.1635C63.7459 80 62.5967 78.852 62.5967 77.4359V32.4342C62.5967 31.0182 63.7459 29.8701 65.1635 29.8701H77.4338C78.8514 29.8701 80.0006 31.0182 80.0006 32.4342V77.4359C80.0006 78.852 78.8514 80 77.4338 80ZM67.7304 74.8718H74.8671V34.9983H67.7304V74.8718Z" fill="#0C0C24"></path></svg>