<svg xmlns="http://www.w3.org/2000/svg" width="69" height="65" viewBox="0 0 69 65" fill="none"><path d="M56.6154 2.01672H12.7638C9.1832 2.94346 2.0473 6.89475 2.1484 15.286C2.2495 23.6772 9.77294 26.5332 13.522 26.9123H26.2858V17.0552C26.4543 16.3391 27.5748 14.8563 30.7088 14.6541C33.8429 14.4519 34.8792 16.1706 35.0055 17.0552V26.9123H36.3957C40.2711 26.8702 49.4121 26.8112 54.9726 26.9123C61.9231 27.0387 65.0825 21.9838 66.599 13.8958C67.8121 7.42552 60.4488 3.28046 56.6154 2.01672Z" fill="#62CAFE"></path><path d="M54.8109 0.121094H14.1892C6.36525 0.121094 0 6.48634 0 14.3103C0 22.1343 6.36525 28.4995 14.1892 28.4995H24.5207V39.9631L24.0163 39.5399C21.5227 37.4474 17.6207 37.6175 15.3188 39.9197C12.9065 42.332 13.0644 46.1659 15.6877 48.3669L24.5206 55.7788V62.9219C24.5206 64.0383 25.4257 64.9434 26.5421 64.9434H50.7999C51.9163 64.9434 52.8214 64.0383 52.8214 62.9219V40.2063C52.8214 37.1531 50.5366 34.5658 47.5066 34.1884L36.6495 32.8357V28.4992H54.8109C62.6349 28.4992 69 22.134 69 14.31C69 6.48607 62.6349 0.121094 54.8109 0.121094ZM28.5636 60.9004V56.8574H48.7784V60.9004H28.5636ZM47.0069 38.2003C48.0169 38.3262 48.7786 39.1886 48.7786 40.2063V52.8145H27.2779L18.2863 45.2697C17.4883 44.6001 17.4399 43.5162 18.1776 42.7783C19.0061 41.9499 20.5201 41.8839 21.4176 42.637L25.2428 45.8467C26.5549 46.9474 28.5637 46.0136 28.5637 44.2981V18.4492C28.5637 17.3346 29.4705 16.4277 30.5852 16.4277C31.6998 16.4277 32.6067 17.3346 32.6067 18.4492V34.6211C32.6067 35.6409 33.3664 36.5009 34.3783 36.6271L47.0069 38.2003ZM54.8109 24.4564H36.6495V18.4492C36.6495 15.1053 33.929 12.3848 30.5851 12.3848C27.2411 12.3848 24.5206 15.1053 24.5206 18.4492V24.4564H14.1891C8.59454 24.4564 4.04297 19.9048 4.04297 14.3103C4.04297 8.71577 8.59454 4.16406 14.1892 4.16406H54.8109C60.4055 4.16406 64.957 8.71564 64.957 14.3103C64.957 19.905 60.4055 24.4564 54.8109 24.4564Z" fill="#0C0C24"></path><path d="M53.272 8.79923L46.6154 15.4557L44.0018 12.8422C43.2125 12.0527 41.9325 12.0527 41.143 12.8422C40.3535 13.6317 40.3535 14.9115 41.143 15.701L45.186 19.7439C45.9753 20.5334 47.2553 20.5335 48.0447 19.7439L56.1307 11.658C56.9201 10.8686 56.9201 9.58868 56.1307 8.79923C55.3414 8.00963 54.0614 8.00963 53.272 8.79923Z" fill="black"></path></svg>