<svg xmlns="http://www.w3.org/2000/svg" width="71" height="80" viewBox="0 0 71 80" fill="none"><path d="M11.718 80H39.8443C41.1388 80 42.188 78.9508 42.188 77.6562V65.6244H53.9074C57.7844 65.6244 60.9387 62.4701 60.9387 58.5925V50.6658L69.0185 46.6259C69.6204 46.3256 70.0635 45.7812 70.2362 45.1311C70.4089 44.4817 70.2936 43.789 69.9206 43.2299L60.9308 29.7441C60.4907 10.8946 43.1219 -3.32051 23.9379 0.677304C12.3711 3.08759 3.01253 12.4913 0.65046 24.0758C-1.50103 34.6282 1.7552 45.1549 9.37424 52.4548V77.6562C9.37424 78.9508 10.4234 80 11.718 80ZM5.24337 25.0127C7.23739 15.2361 15.1341 7.30024 24.8943 5.26594C41.4172 1.82233 56.2512 14.2461 56.2512 30.4662C56.2512 30.9288 56.3879 31.3811 56.6449 31.7662L64.5477 43.6205L57.547 47.1209C56.7529 47.5176 56.2512 48.3294 56.2512 49.2175V58.5925C56.2512 59.8852 55.1995 60.9368 53.9074 60.9368H39.8443C38.5497 60.9368 37.5005 61.986 37.5005 63.2806V75.3125H14.0617V51.4312C14.0617 50.7641 13.7779 50.1293 13.2811 49.6844C6.36092 43.4911 3.35616 34.2681 5.24337 25.0127Z" fill="#0C0C24"></path><path d="M35.1569 51.5613H25.7813C24.4867 51.5613 23.4375 52.6105 23.4375 53.905C23.4375 55.1996 24.4867 56.2488 25.7813 56.2488H35.1569C36.4508 56.2488 37.5006 55.1996 37.5006 53.905C37.5006 52.6105 36.4508 51.5613 35.1569 51.5613Z" fill="#0C0C24"></path><path d="M16.4059 32.81H18.9797C19.371 34.7466 20.2529 36.5655 21.5914 38.117C22.8164 39.5373 23.4372 40.9582 23.4372 42.34V44.5294C23.4372 45.8239 24.487 46.8731 25.7815 46.8731H35.1565C36.4511 46.8731 37.5003 45.8239 37.5003 44.5294V41.7932C37.5003 40.3954 38.3279 39.2187 39.0219 38.4783C40.5203 36.8786 41.5225 34.92 41.951 32.81H44.5322C45.8267 32.81 46.8759 31.7608 46.8759 30.4662C46.8759 29.1717 45.8267 28.1225 44.5322 28.1225H41.9534C41.6544 26.6466 41.0751 25.2495 40.2481 24.002L42.0706 22.1795C42.9862 21.2639 42.9862 19.7802 42.0706 18.8646C41.1557 17.9491 39.6713 17.9491 38.7558 18.8646L36.9308 20.6896C35.6723 19.8571 34.2758 19.2833 32.8128 18.9867V16.4031C32.8128 15.1085 31.7636 14.0593 30.469 14.0593C29.1745 14.0593 28.1253 15.1085 28.1253 16.4031V18.9769C28.0673 18.9885 28.0093 18.9989 27.9513 19.0117C26.5341 19.3096 25.1956 19.8894 24.0011 20.6835L22.1823 18.8646C21.2667 17.9497 19.783 17.9497 18.8674 18.8646C17.9519 19.7802 17.9519 21.2639 18.8674 22.1795L20.6808 23.9928C19.9649 25.0652 19.4253 26.2536 19.1134 27.5127C19.0634 27.716 19.0194 27.9192 18.9797 28.1225H16.4059C15.1113 28.1225 14.0615 29.1717 14.0615 30.4662C14.0615 31.7608 15.1113 32.81 16.4059 32.81ZM23.6648 28.6376C24.2807 26.1468 26.4126 24.1253 28.9157 23.5991C33.5415 22.6269 37.5003 26.1211 37.5003 30.4662C37.5003 32.2588 36.8259 33.966 35.6015 35.2728C33.7771 37.2198 32.8128 39.4744 32.8128 41.7932V42.1856H28.1241C28.0838 39.7027 27.081 37.3052 25.1413 35.0555C23.6282 33.3013 23.0899 30.9618 23.6648 28.6376Z" fill="#0C0C24"></path></svg>