<svg xmlns="http://www.w3.org/2000/svg" width="71" height="65" viewBox="0 0 71 65" fill="none"><rect x="4.48895" y="14.9033" width="61.768" height="19.7514" fill="#FC9A37"></rect><path d="M48.4807 0H21.547V10.7735H0V65H70.0276V10.7735H48.4807V0ZM26.9337 5.38674H43.0939V10.7735H26.9337V5.38674ZM5.38674 59.6133V37.2439C6.22976 37.5429 7.13599 37.7072 8.08011 37.7072H16.1602V43.0939H21.547V37.7072H48.4807V43.0939H53.8674V37.7072H61.9475C62.8918 37.7072 63.7979 37.5429 64.6409 37.2439V59.6133H5.38674ZM64.6409 29.6271C64.6409 31.1122 63.4326 32.3204 61.9475 32.3204H8.08011C6.59499 32.3204 5.38674 31.1122 5.38674 29.6271V16.1602H64.6409V29.6271Z" fill="#0C0C24"></path></svg>