<svg xmlns="http://www.w3.org/2000/svg" width="292" height="559" viewBox="0 0 292 559" fill="none"><path d="M25.207 3L5.33127 35.5167L25.207 68.0335L5.33126 100.55L25.207 133.067L5.33126 165.584L25.207 198.1L5.33126 230.617L25.207 263.134L5.33126 295.651L25.207 328.167L5.33125 360.684L25.207 393.201L5.33125 425.718L25.207 458.234L5.33125 490.751L25.207 523.483L5.33124 556" stroke="#DEDEFD" stroke-width="8" stroke-miterlimit="10"></path><path d="M57.7529 3L37.8772 35.5167L57.7529 68.0335L37.8772 100.55L57.7529 133.067L37.8772 165.584L57.7529 198.1L37.8772 230.617L57.7529 263.134L37.8772 295.651L57.7529 328.167L37.8772 360.684L57.7529 393.201L37.8771 425.718L57.7529 458.234L37.8771 490.751L57.7529 523.483L37.8771 556" stroke="#DEDEFD" stroke-width="8" stroke-miterlimit="10"></path><path d="M90.5488 3L70.6731 35.5167L90.5488 68.0335L70.6731 100.55L90.5488 133.067L70.6731 165.584L90.5488 198.1L70.6731 230.617L90.5488 263.134L70.6731 295.651L90.5488 328.167L70.673 360.684L90.5488 393.201L70.673 425.718L90.5488 458.234L70.673 490.751L90.5488 523.483L70.673 556" stroke="#DEDEFD" stroke-width="8" stroke-miterlimit="10"></path><path d="M123.344 3L103.468 35.5167L123.344 68.0335L103.468 100.55L123.344 133.067L103.468 165.584L123.344 198.1L103.468 230.617L123.344 263.134L103.468 295.651L123.344 328.167L103.468 360.684L123.344 393.201L103.468 425.718L123.344 458.234L103.468 490.751L123.344 523.483L103.468 556" stroke="#DEDEFD" stroke-width="8" stroke-miterlimit="10"></path><path d="M156.138 3L136.262 35.5167L156.138 68.0335L136.262 100.55L156.138 133.067L136.262 165.584L156.138 198.1L136.262 230.617L156.138 263.134L136.262 295.651L156.138 328.167L136.262 360.684L156.138 393.201L136.262 425.718L156.138 458.234L136.262 490.751L156.138 523.483L136.262 556" stroke="#DEDEFD" stroke-width="8" stroke-miterlimit="10"></path><path d="M188.934 3L169.058 35.5167L188.934 68.0335L169.058 100.55L188.934 133.067L169.058 165.584L188.934 198.1L169.058 230.617L188.934 263.134L169.058 295.651L188.934 328.167L169.058 360.684L188.934 393.201L169.058 425.718L188.934 458.234L169.058 490.751L188.934 523.483L169.058 556" stroke="#DEDEFD" stroke-width="8" stroke-miterlimit="10"></path><path d="M221.479 3L201.604 35.5167L221.479 68.0335L201.604 100.55L221.479 133.067L201.604 165.584L221.479 198.1L201.604 230.617L221.479 263.134L201.604 295.651L221.479 328.167L201.604 360.684L221.479 393.201L201.604 425.718L221.479 458.234L201.604 490.751L221.479 523.483L201.604 556" stroke="#DEDEFD" stroke-width="8" stroke-miterlimit="10"></path><path d="M254.275 3L234.4 35.5167L254.275 68.0335L234.4 100.55L254.275 133.067L234.4 165.584L254.275 198.1L234.4 230.617L254.275 263.134L234.4 295.651L254.275 328.167L234.4 360.684L254.275 393.201L234.4 425.718L254.275 458.234L234.4 490.751L254.275 523.483L234.4 556" stroke="#DEDEFD" stroke-width="8" stroke-miterlimit="10"></path><path d="M287.07 3L267.195 35.5167L287.07 68.0335L267.195 100.55L287.07 133.067L267.195 165.584L287.07 198.1L267.195 230.617L287.07 263.134L267.195 295.651L287.07 328.167L267.195 360.684L287.07 393.201L267.195 425.718L287.07 458.234L267.195 490.751L287.07 523.483L267.195 556" stroke="#DEDEFD" stroke-width="8" stroke-miterlimit="10"></path></svg>