<svg xmlns="http://www.w3.org/2000/svg" width="80" height="80" viewBox="0 0 80 80" fill="none"><path d="M70.625 0H9.375C4.20563 0 0 4.20563 0 9.375V39.8958C0 45.0652 4.20563 49.2708 9.375 49.2708H12.7131C13.4209 52.6 15.2059 55.5355 17.6855 57.6928C10.782 61.3147 6.06125 68.5534 6.06125 76.875C6.06125 78.6009 7.46031 80 9.18625 80H46.2303C47.9562 80 49.3553 78.6009 49.3553 76.875C49.3553 68.5955 44.6822 61.388 37.8359 57.7483C40.3489 55.5858 42.1587 52.6287 42.8725 49.2708H49.1667V58.4375C49.1667 61.238 52.5497 62.5984 54.5014 60.6473L65.8778 49.2708H70.625C75.7944 49.2708 80 45.0652 80 39.8958V9.375C80 4.20563 75.7944 0 70.625 0V0ZM27.7928 55.228C22.7383 55.228 18.6261 51.1159 18.6261 46.0614C18.6261 41.0069 22.7383 36.8947 27.7928 36.8947C32.8473 36.8947 36.9595 41.0069 36.9595 46.0614C36.9595 51.1159 32.8473 55.228 27.7928 55.228ZM42.7866 73.75H12.63C14.0783 66.7534 20.2891 61.478 27.7083 61.478C35.1275 61.478 41.3383 66.7534 42.7866 73.75ZM73.75 39.8958C73.75 41.6189 72.3481 43.0208 70.625 43.0208H64.5833C63.7545 43.0208 62.9595 43.35 62.3736 43.9359L55.4166 50.893V46.1456C55.4166 44.4197 54.0175 43.0206 52.2916 43.0206H42.9077C41.4919 35.9711 35.253 30.6445 27.7928 30.6445C20.3327 30.6445 14.0938 35.9711 12.678 43.0206H9.375C7.65188 43.0206 6.25 41.6188 6.25 39.8956V9.375C6.25 7.65188 7.65188 6.25 9.375 6.25H70.625C72.3481 6.25 73.75 7.65188 73.75 9.375V39.8958ZM67.7083 15.4167C67.7083 17.1427 66.3092 18.5417 64.5833 18.5417H15.4167C13.6908 18.5417 12.2917 17.1427 12.2917 15.4167C12.2917 13.6908 13.6908 12.2917 15.4167 12.2917H64.5834C66.3092 12.2917 67.7083 13.6908 67.7083 15.4167ZM67.7083 27.7083C67.7083 29.4342 66.3092 30.8333 64.5833 30.8333H40C38.2741 30.8333 36.875 29.4342 36.875 27.7083C36.875 25.9823 38.2741 24.5833 40 24.5833H64.5833C66.3092 24.5833 67.7083 25.9823 67.7083 27.7083Z" fill="#0C0C24"></path></svg>