<svg xmlns="http://www.w3.org/2000/svg" width="80" height="80" viewBox="0 0 80 80" fill="none"><path d="M75.3785 21.3324L79.0815 17.6294C81.0431 15.6677 79.654 12.2943 76.872 12.2943H67.7057V3.12863C67.7057 0.353966 64.3378 -1.04801 62.3706 0.918541L58.6676 4.62155C52.9376 1.59481 46.5332 0.00362355 39.9982 0.00362355C17.8925 0.00362355 0 17.893 0 40.0018C0 62.1075 17.8894 80 39.9982 80C62.1039 80 79.9964 62.1106 79.9964 40.0018C79.9964 33.4668 78.4058 27.063 75.3785 21.3324ZM64.5807 18.5443H69.3274L63.2862 24.5855H55.4145V16.7138L61.4557 10.6726V15.4193C61.4557 17.1454 62.8546 18.5443 64.5807 18.5443ZM39.9982 73.7506C21.3464 73.7506 6.25 58.656 6.25 40.0018C6.25 21.3501 21.344 6.25302 39.9982 6.25302C44.8578 6.25302 49.6301 7.29428 54.0021 9.28769L50.08 13.2098C49.494 13.7957 49.1645 14.5904 49.1645 15.4193V26.416L37.7887 37.7923C36.5686 39.0124 36.5686 40.9912 37.7887 42.2113C39.0088 43.4314 40.9876 43.432 42.2083 42.2113L53.584 30.8355H64.5807C65.4096 30.8355 66.2043 30.506 66.7902 29.9206L70.7129 25.9979C72.7063 30.3699 73.747 35.1422 73.747 40.0018C73.747 58.6536 58.653 73.7506 39.9982 73.7506ZM64.6405 40.0018C64.6405 53.5895 53.5865 64.6442 39.9982 64.6442C26.4105 64.6442 15.3558 53.5895 15.3558 40.0018C15.3558 26.4142 26.4105 15.3595 39.9982 15.3595C41.7243 15.3595 43.1232 16.7584 43.1232 18.4845C43.1232 20.2105 41.7243 21.6095 39.9982 21.6095C29.8566 21.6095 21.6058 29.8602 21.6058 40.0018C21.6058 50.1434 29.8566 58.3942 39.9982 58.3942C50.1398 58.3942 58.3911 50.1434 58.3911 40.0018C58.3911 38.2757 59.7901 36.8768 61.5155 36.8768C63.2416 36.8768 64.6405 38.2757 64.6405 40.0018Z" fill="#0C0C24"></path></svg>