<svg xmlns="http://www.w3.org/2000/svg" width="81" height="80" viewBox="0 0 81 80" fill="none"><path d="M76.5393 3.46274C71.9228 -1.15394 64.4506 -1.15456 59.8331 3.46274L55.0717 8.22427L8.79368 54.5023C8.5168 54.7792 8.29835 55.1203 8.1621 55.4741L0.192679 76.2035C-0.678906 78.4704 1.56162 80.6691 3.79871 79.8095L24.5281 71.8401C24.8966 71.6984 25.2319 71.4766 25.4999 71.2085L76.5395 20.1689C81.156 15.5521 81.1566 8.07989 76.5393 3.46274ZM7.65396 72.3481L11.8303 61.4851L18.5169 68.1717L7.65396 72.3481ZM23.5267 65.289L14.713 56.4753L57.0447 14.1436L65.8584 22.9573L23.5267 65.289ZM72.5929 16.2226L69.8046 19.0111L60.9909 10.1974L63.7793 7.40909C66.2148 4.97372 70.1571 4.97278 72.5929 7.40909C75.0285 9.84416 75.0291 13.7868 72.5929 16.2226Z" fill="#0C0C24"></path><path d="M64.8008 53.3311C58.4753 53.3311 53.3291 58.4774 53.3291 64.8029C53.3291 71.1284 58.4752 76.2748 64.8008 76.2748C71.1263 76.2748 76.2727 71.1284 76.2727 64.8029C76.2727 58.4774 71.1263 53.3311 64.8008 53.3311ZM64.8008 70.6938C61.5526 70.6938 58.91 68.0511 58.91 64.8029C58.91 61.5547 61.5526 58.912 64.8008 58.912C68.049 58.912 70.6917 61.5547 70.6917 64.8029C70.6917 68.0513 68.049 70.6938 64.8008 70.6938Z" fill="#0C0C24"></path><path d="M22.6406 4.96899H7.75816C6.21702 4.96899 4.96777 6.2184 4.96777 7.75938V22.6418C4.96777 24.1829 6.21718 25.4322 7.75816 25.4322H22.6406C24.1817 25.4322 25.4309 24.1828 25.4309 22.6418V7.75953C25.4309 6.2184 24.1817 4.96899 22.6406 4.96899ZM19.8502 19.8514H10.5487V10.5499H19.8502V19.8514Z" fill="#0C0C24"></path><path d="M49.5674 30.4342C48.4779 29.3445 46.711 29.3445 45.6212 30.4342L31.1376 44.9179C30.0479 46.0076 30.0479 47.7744 31.1376 48.8641C32.227 49.9538 33.9941 49.9539 35.0838 48.8641L49.5674 34.3804C50.6572 33.2907 50.6572 31.5241 49.5674 30.4342Z" fill="#0C0C24"></path></svg>