<svg xmlns="http://www.w3.org/2000/svg" width="59" height="65" viewBox="0 0 59 65" fill="none"><path d="M50.05 5.19995C19.37 9.61995 6.5 38.025 3.9 51.675L5.525 56.225C5.95833 55.3583 6.955 53.235 7.475 51.675C8.125 49.725 18.2 46.475 26.975 44.85C33.995 43.55 41.1667 33.6916 43.875 28.925L39.325 25.35C38.675 24.8083 38.09 23.27 40.95 21.45C43.81 19.63 48.2083 9.85828 50.05 5.19995Z" fill="#57BFFF"></path><path d="M12.805 39.117C12.0478 41.145 11.4075 43.017 10.8355 44.9118C13.9555 42.6465 17.6637 41.21 21.944 40.6738C30.1112 39.6533 37.3685 34.2615 41.041 27.4852L36.309 22.7565L40.9012 18.1577L44.1512 14.9045C45.5487 13.507 47.125 10.9265 48.7923 7.2085C30.615 10.0262 19.4838 21.1575 12.8018 39.117H12.805ZM45.5 22.7533L48.75 26C45.5 35.75 35.75 45.5 22.75 47.125C14.0758 48.2105 8.658 54.1678 6.4935 65H0C3.25 45.5 9.75 0 58.5 0C55.25 9.74025 52.0065 16.237 48.7598 19.4903L45.5 22.7533Z" fill="#0C0C24"></path><rect x="16.039" y="59.9351" width="8.44156" height="5.06493" fill="#0C0C24"></rect><rect x="29.5455" y="59.9351" width="8.44156" height="5.06493" fill="#0C0C24"></rect><rect x="43.0519" y="59.9351" width="7.5974" height="5.06493" fill="#0C0C24"></rect></svg>