<svg xmlns="http://www.w3.org/2000/svg" width="80" height="80" viewBox="0 0 80 80" fill="none"><path d="M24.6154 58.4615C24.627 56.3975 24.1193 54.3638 23.1391 52.5474C22.1589 50.731 20.7376 49.1903 19.006 48.067C17.2744 46.9437 15.2881 46.2739 13.2299 46.1193C11.1717 45.9647 9.10767 46.3302 7.22769 47.1821C5.34771 48.0341 3.71218 49.3451 2.47157 50.9947C1.23097 52.6443 0.425134 54.5793 0.128212 56.6219C-0.16871 58.6644 0.0528171 60.7488 0.772411 62.6833C1.492 64.6179 2.68655 66.3403 4.24615 67.6923L3.6 68.2154C1.30939 70.5368 0.0173801 73.6619 0 76.9231C0 77.7391 0.324175 78.5217 0.90121 79.0988C1.47824 79.6758 2.26087 80 3.07692 80C3.89297 80 4.6756 79.6758 5.25264 79.0988C5.82967 78.5217 6.15385 77.7391 6.15385 76.9231C6.15385 75.291 6.8022 73.7257 7.95626 72.5716C9.11034 71.4176 10.6756 70.7692 12.3077 70.7692C13.9398 70.7692 15.505 71.4176 16.6591 72.5716C17.8132 73.7257 18.4615 75.291 18.4615 76.9231C18.4615 77.7391 18.7857 78.5217 19.3627 79.0988C19.9398 79.6758 20.7224 80 21.5385 80C22.3545 80 23.1371 79.6758 23.7142 79.0988C24.2912 78.5217 24.6154 77.7391 24.6154 76.9231C24.6055 75.1709 24.2216 73.441 23.4893 71.8491C22.757 70.2572 21.6933 68.84 20.3692 67.6923C21.6933 66.5446 22.757 65.1274 23.4893 63.5355C24.2216 61.9436 24.6055 60.2137 24.6154 58.4615ZM12.3077 52.3077C13.5248 52.3077 14.7146 52.6686 15.7266 53.3448C16.7386 54.021 17.5273 54.9821 17.9931 56.1065C18.4589 57.231 18.5807 58.4684 18.3433 59.6621C18.1058 60.8558 17.5197 61.9523 16.6591 62.813C15.7985 63.6736 14.702 64.2597 13.5082 64.4971C12.3145 64.7346 11.0772 64.6127 9.95272 64.1469C8.82825 63.6812 7.86715 62.8924 7.19096 61.8804C6.51476 60.8684 6.15385 59.6786 6.15385 58.4615C6.15385 56.8294 6.8022 55.2642 7.95626 54.1101C9.11034 52.956 10.6756 52.3077 12.3077 52.3077Z" fill="#0C0C24"></path><path d="M52.3078 58.4615C52.3194 56.3975 51.8117 54.3638 50.8315 52.5474C49.8513 50.731 48.43 49.1903 46.6984 48.067C44.9668 46.9437 42.9805 46.2739 40.9223 46.1193C38.8641 45.9647 36.8001 46.3302 34.9201 47.1821C33.0401 48.0341 31.4046 49.3451 30.164 50.9947C28.9233 52.6443 28.1175 54.5793 27.8206 56.6219C27.5237 58.6644 27.7452 60.7488 28.4648 62.6833C29.1844 64.6179 30.3789 66.3403 31.9385 67.6923C30.6145 68.84 29.5507 70.2572 28.8185 71.8491C28.0862 73.441 27.7023 75.1709 27.6924 76.9231C27.6924 77.7391 28.0166 78.5217 28.5936 79.0988C29.1706 79.6758 29.9533 80 30.7693 80C31.5854 80 32.368 79.6758 32.945 79.0988C33.5221 78.5217 33.8462 77.7391 33.8462 76.9231C33.8462 75.291 34.4946 73.7257 35.6486 72.5716C36.8027 71.4176 38.368 70.7692 40.0001 70.7692C41.6322 70.7692 43.1974 71.4176 44.3515 72.5716C45.5056 73.7257 46.1539 75.291 46.1539 76.9231C46.1539 77.7391 46.4781 78.5217 47.0551 79.0988C47.6322 79.6758 48.4148 80 49.2308 80C50.0469 80 50.8295 79.6758 51.4066 79.0988C51.9836 78.5217 52.3078 77.7391 52.3078 76.9231C52.2979 75.1709 51.914 73.441 51.1817 71.8491C50.4494 70.2572 49.3857 68.84 48.0616 67.6923C49.3857 66.5446 50.4494 65.1274 51.1817 63.5355C51.914 61.9436 52.2979 60.2137 52.3078 58.4615ZM33.8462 58.4615C33.8462 57.2444 34.2071 56.0546 34.8833 55.0426C35.5595 54.0306 36.5206 53.2419 37.6451 52.7761C38.7696 52.3103 40.0069 52.1885 41.2006 52.4259C42.3944 52.6634 43.4909 53.2495 44.3515 54.1101C45.2121 54.9707 45.7982 56.0672 46.0357 57.261C46.2731 58.4547 46.1513 59.692 45.6855 60.8165C45.2197 61.941 44.431 62.9021 43.419 63.5783C42.407 64.2545 41.2172 64.6154 40.0001 64.6154C38.368 64.6154 36.8027 63.967 35.6486 62.813C34.4946 61.6589 33.8462 60.0936 33.8462 58.4615Z" fill="#0C0C24"></path><path d="M75.754 67.6923C77.6498 66.049 78.9981 63.8655 79.6183 61.4344C80.2384 59.0033 80.1007 56.4408 79.2237 54.0901C78.3468 51.7395 76.7723 49.713 74.7113 48.2822C72.6504 46.8514 70.2014 46.0846 67.6925 46.0846C65.1835 46.0846 62.7345 46.8514 60.6736 48.2822C58.6126 49.713 57.0382 51.7395 56.1612 54.0901C55.2842 56.4408 55.1465 59.0033 55.7667 61.4344C56.3868 63.8655 57.7351 66.049 59.6309 67.6923L58.9848 68.2154C56.6942 70.5368 55.4021 73.6619 55.3848 76.9231C55.3848 77.7392 55.7089 78.5218 56.286 79.0988C56.863 79.6759 57.6456 80 58.4617 80C59.2777 80 60.0604 79.6759 60.6374 79.0988C61.2144 78.5218 61.5386 77.7392 61.5386 76.9231C61.5386 75.291 62.187 73.7258 63.341 72.5717C64.4951 71.4176 66.0604 70.7693 67.6925 70.7693C69.3246 70.7693 70.8898 71.4176 72.0439 72.5717C73.198 73.7258 73.8463 75.291 73.8463 76.9231C73.8463 77.7392 74.1705 78.5218 74.7475 79.0988C75.3245 79.6759 76.1072 80 76.9232 80C77.7393 80 78.5219 79.6759 79.0989 79.0988C79.676 78.5218 80.0002 77.7392 80.0002 76.9231C79.9903 75.1709 79.6063 73.441 78.8741 71.8491C78.1418 70.2572 77.0781 68.84 75.754 67.6923ZM67.6925 52.3077C68.9096 52.3077 70.0994 52.6686 71.1114 53.3448C72.1233 54.021 72.9121 54.9821 73.3779 56.1066C73.8436 57.2311 73.9655 58.4684 73.7281 59.6621C73.4906 60.8559 72.9045 61.9524 72.0439 62.813C71.1833 63.6736 70.0867 64.2597 68.893 64.4972C67.6993 64.7346 66.4619 64.6128 65.3375 64.147C64.213 63.6812 63.2519 62.8925 62.5757 61.8805C61.8995 60.8685 61.5386 59.6787 61.5386 58.4616C61.5386 56.8295 62.187 55.2642 63.341 54.1101C64.4951 52.9561 66.0604 52.3077 67.6925 52.3077Z" fill="#0C0C24"></path><path d="M9.23122 40C10.0473 40 10.8299 39.6758 11.4069 39.0988C11.984 38.5218 12.3081 37.7391 12.3081 36.9231V6.15385H67.6928V36.9231C67.6928 37.7391 68.0169 38.5218 68.594 39.0988C69.171 39.6758 69.9536 40 70.7697 40C71.5857 40 72.3684 39.6758 72.9454 39.0988C73.5224 38.5218 73.8466 37.7391 73.8466 36.9231V3.07692C73.8466 2.26087 73.5224 1.47824 72.9454 0.90121C72.3684 0.324175 71.5857 0 70.7697 0H9.23122C8.41517 0 7.63254 0.324175 7.05551 0.90121C6.47847 1.47824 6.1543 2.26087 6.1543 3.07692V36.9231C6.1543 37.7391 6.47847 38.5218 7.05551 39.0988C7.63254 39.6758 8.41517 40 9.23122 40Z" fill="#0C0C24"></path><path d="M56.2766 13.2001L45.5381 23.9385L35.2304 18.8001C34.6531 18.5044 33.997 18.3987 33.356 18.4982C32.715 18.5976 32.1218 18.8971 31.6612 19.3539L19.3535 31.6616C19.0651 31.9476 18.8362 32.288 18.68 32.6629C18.5238 33.0379 18.4434 33.44 18.4434 33.8462C18.4434 34.2524 18.5238 34.6546 18.68 35.0295C18.8362 35.4045 19.0651 35.7448 19.3535 36.0308C19.6395 36.3192 19.9799 36.5481 20.3548 36.7043C20.7298 36.8606 21.1319 36.941 21.5381 36.941C21.9443 36.941 22.3465 36.8606 22.7214 36.7043C23.0964 36.5481 23.4367 36.3192 23.7227 36.0308L34.4612 25.2924L44.7689 30.4308C45.3463 30.7265 46.0023 30.8322 46.6433 30.7327C47.2843 30.6333 47.8775 30.3338 48.3381 29.877L60.6458 17.5693C61.2252 16.9899 61.5507 16.2041 61.5507 15.3847C61.5507 14.5653 61.2252 13.7795 60.6458 13.2001C60.0664 12.6207 59.2806 12.2952 58.4612 12.2952C57.6418 12.2952 56.856 12.6207 56.2766 13.2001Z" fill="#0C0C24"></path></svg>